<?xml version="1.0" encoding="UTF-8" standalone="no"?>
<!-- Created with Inkscape (http://www.inkscape.org/) -->

<svg
   xmlns:dc="http://purl.org/dc/elements/1.1/"
   xmlns:cc="http://creativecommons.org/ns#"
   xmlns:rdf="http://www.w3.org/1999/02/22-rdf-syntax-ns#"
   xmlns:svg="http://www.w3.org/2000/svg"
   xmlns="http://www.w3.org/2000/svg"
   xmlns:sodipodi="http://sodipodi.sourceforge.net/DTD/sodipodi-0.dtd"
   xmlns:inkscape="http://www.inkscape.org/namespaces/inkscape"
   width="116.18382mm"
   height="30.348526mm"
   viewBox="0 0 116.18382 30.348526"
   version="1.1"
   id="svg46"
   inkscape:version="0.92.5 (2060ec1f9f, 2020-04-08)"
   sodipodi:docname="EclipsIR-SmartLogo.svg">
  <defs
     id="defs40" />
  <sodipodi:namedview
     id="base"
     pagecolor="#ffffff"
     bordercolor="#666666"
     borderopacity="1.0"
     inkscape:pageopacity="0.0"
     inkscape:pageshadow="2"
     inkscape:zoom="0.35"
     inkscape:cx="-136.15432"
     inkscape:cy="-99.79131"
     inkscape:document-units="mm"
     inkscape:current-layer="layer1"
     showgrid="false"
     fit-margin-top="0"
     fit-margin-left="0"
     fit-margin-right="0"
     fit-margin-bottom="0"
     inkscape:window-width="1920"
     inkscape:window-height="1017"
     inkscape:window-x="-8"
     inkscape:window-y="760"
     inkscape:window-maximized="1" />
  <metadata
     id="metadata43">
    <rdf:RDF>
      <cc:Work
         rdf:about="">
        <dc:format>image/svg+xml</dc:format>
        <dc:type
           rdf:resource="http://purl.org/dc/dcmitype/StillImage" />
        <dc:title></dc:title>
      </cc:Work>
    </rdf:RDF>
  </metadata>
  <g
     inkscape:label="Layer 1"
     inkscape:groupmode="layer"
     id="layer1"
     transform="translate(-28.842617,-92.081689)">
    <g
       transform="matrix(0.26458333,0,0,0.26458333,13.162086,22.732836)"
       id="g3">
      <path
         style="fill:#d51f27"
         inkscape:connector-curvature="0"
         d="m 415.818,289.766 c -110.141,-20.311 -188.487,-13.842 -260.51,11.881 -11.284,-0.105 -5.932,-0.311 -26.928,-0.105 -2.059,8.646 0.823,-3.705 -2.453,11.772 -22.236,9.7 -44.193,21.199 -66.662,34.263 86.567,-92.052 254.139,-107.132 356.553,-57.811 z"
         id="path5" />
      <g
         id="g7">
        <path
           inkscape:connector-curvature="0"
           d="m 177.752,304.935 -2.568,12.125 h -28.527 l -1.92,9 h 27.516 l -2.527,11.375 h -27.418 l -2.348,11 h 30.918 l -2.766,12.875 h -48.359 l 12.035,-56.375 z"
           id="path9" />
        <path
           inkscape:connector-curvature="0"
           d="m 222.685,334.666 -14.125,0.77 c -0.674,-3.582 -3.094,-5.375 -7.258,-5.375 -3.855,0 -6.818,1.559 -8.889,4.672 -2.07,3.115 -3.104,6.508 -3.104,10.178 0,2.223 0.736,3.93 2.211,5.117 1.475,1.189 3.066,1.783 4.773,1.783 4.215,0 7.346,-2.332 9.391,-7 l 14.625,1.576 c -3.623,10.617 -11.832,15.924 -24.629,15.924 -14.414,0 -21.621,-5.893 -21.621,-17.678 0,-6.855 2.377,-12.748 7.133,-17.678 4.756,-4.93 11.453,-7.395 20.092,-7.395 6.195,0 11.143,1.264 14.846,3.787 3.701,2.524 5.887,6.297 6.555,11.319 z"
           id="path11" />
        <path
           inkscape:connector-curvature="0"
           d="m 248.534,304.935 -12.035,56.375 h -15.727 l 12.035,-56.375 z"
           id="path13" />
        <path
           inkscape:connector-curvature="0"
           d="m 267.511,320.435 -8.727,40.875 h -15.727 l 8.729,-40.875 z m 3.309,-15.5 -2.293,10.75 H 252.8 l 2.293,-10.75 z"
           id="path15" />
        <path
           inkscape:connector-curvature="0"
           d="m 287.417,324.761 c 2.225,-2.055 4.219,-3.434 5.984,-4.141 1.765,-0.707 3.889,-1.061 6.371,-1.061 4.578,0 8.09,1.525 10.533,4.576 2.441,3.051 3.664,7.164 3.664,12.34 0,6.92 -1.84,12.955 -5.516,18.107 -3.678,5.152 -8.322,7.727 -13.932,7.727 -5.715,0 -10.033,-2.137 -12.953,-6.414 l -4.531,20.914 h -15.693 l 12.148,-56.375 h 14.543 l -0.773,4.17 z m 2.936,27.049 c 2.287,0 4.254,-1.451 5.898,-4.354 1.644,-2.903 2.469,-6.42 2.469,-10.557 0,-2.516 -0.527,-4.326 -1.582,-5.432 -1.055,-1.106 -2.313,-1.658 -3.777,-1.658 -2.906,0 -5.137,1.625 -6.691,4.875 -1.554,3.25 -2.332,6.568 -2.332,9.959 0,2.414 0.609,4.213 1.832,5.395 1.22,1.182 2.614,1.772 4.183,1.772 z"
           id="path17" />
        <path
           inkscape:connector-curvature="0"
           d="m 359.058,330.236 -14.625,1.574 c -0.441,-2.416 -2.291,-3.625 -5.551,-3.625 -1.916,0 -3.365,0.348 -4.35,1.039 -0.984,0.693 -1.475,1.502 -1.475,2.424 0,0.949 0.43,1.738 1.291,2.367 0.861,0.629 3.168,1.211 6.922,1.748 6.039,0.898 10.057,2.252 12.049,4.061 1.992,1.809 2.988,4.225 2.988,7.252 0,4.207 -1.949,7.797 -5.844,10.771 -3.896,2.977 -9.83,4.463 -17.799,4.463 -6.512,0 -11.279,-0.953 -14.303,-2.855 -3.023,-1.904 -4.793,-5.043 -5.305,-9.418 l 15.5,-1.352 c 0.662,3.334 2.828,5 6.5,5 1.707,0 3.219,-0.371 4.531,-1.117 1.313,-0.744 1.969,-1.811 1.969,-3.197 0,-1.258 -0.475,-2.104 -1.424,-2.541 -0.949,-0.436 -2.742,-0.859 -5.381,-1.271 -6.074,-0.949 -10.189,-2.389 -12.342,-4.314 -2.153,-1.925 -3.229,-4.352 -3.229,-7.279 0,-2.387 0.807,-4.725 2.424,-7.01 1.617,-2.285 4.061,-4.088 7.332,-5.41 3.271,-1.322 7.295,-1.984 12.068,-1.984 5.465,0 9.652,0.801 12.566,2.4 2.915,1.6 4.743,4.358 5.488,8.274 z"
           id="path19" />
        <path
           inkscape:connector-curvature="0"
           d="m 405.098,350.861 c -2.287,4.063 -5.273,6.986 -8.961,8.771 -3.688,1.783 -8.305,2.678 -13.852,2.678 -8.068,0 -13.805,-1.816 -17.207,-5.449 -3.404,-3.633 -5.105,-8.08 -5.105,-13.346 0,-3.645 0.797,-7.078 2.391,-10.301 1.594,-3.223 3.752,-5.924 6.479,-8.107 2.725,-2.184 5.41,-3.652 8.059,-4.41 2.649,-0.758 5.746,-1.137 9.295,-1.137 7.635,0 13.111,1.656 16.428,4.967 3.316,3.313 4.975,7.381 4.975,12.207 0,1.592 -0.35,4.326 -1.045,8.201 h -31.33 c 0.438,5.5 2.895,8.25 7.371,8.25 3.035,0 5.453,-1.25 7.254,-3.75 z M 392.074,337.31 c 0.182,-0.563 0.273,-1.342 0.273,-2.338 0,-2.07 -0.633,-3.635 -1.895,-4.695 -1.264,-1.061 -2.82,-1.592 -4.668,-1.592 -1.953,0 -3.748,0.723 -5.389,2.166 -1.641,1.445 -2.891,3.598 -3.75,6.459 z"
           id="path21" />
      </g>
      <g
         id="g23">
        <path
           style="stroke:#000000"
           inkscape:connector-curvature="0"
           d="m 443.952,311.564 -2.691,1.115 -0.924,-0.115 -0.922,0.652 -0.539,-0.191 -0.539,0.346 -1.037,-0.191 -0.463,0.576 -0.615,-0.27 -1.422,0.578 -0.461,-0.348 -0.461,0.463 -2.654,-0.27 -0.23,2.537 0.27,0.078 -0.693,0.998 0.385,-0.037 -1.152,3.961 0.461,-0.193 -0.154,1.846 -0.154,0.539 -0.73,1.652 -0.422,0.154 0.385,0.309 -0.5,3.191 -1.693,6.383 -0.576,-0.039 -0.346,0.654 0.576,-0.115 -0.27,1.73 -0.461,0.346 -0.385,2 -0.652,0.576 0.23,0.461 -0.961,1.846 -0.115,2 -0.848,1.691 0.115,0.73 -2.959,9.189 0.115,0.848 -0.385,0.537 0.307,0.654 2.307,0.461 0.117,-0.385 1.652,0.309 0.73,-0.154 0.809,-0.307 3.922,0.115 2.383,-0.193 1.078,-0.691 1.498,-0.039 0.348,0.615 -3.039,2.039 -3.537,0.961 -0.191,0.346 -3.961,0.652 -0.115,0.385 -1.461,-0.463 -0.039,0.539 -4.152,0.346 -0.154,0.424 -0.424,-0.039 -0.037,-0.309 -0.463,0.348 -1.268,-0.615 -0.115,0.615 -1.809,-0.115 -0.807,0.346 h -6.037 l -0.654,-0.461 0.578,-1.383 0.615,-0.193 0.576,-1.23 0.922,-1.076 0.654,0.076 0.309,-0.383 -0.309,-0.385 1.73,-0.615 3.268,0.461 2.309,-6.229 -0.115,-0.539 0.461,-0.23 0.039,-0.77 0.422,0.076 1.77,-5.844 0.076,-2.154 0.73,-1.422 0.193,-1.691 0.385,-0.463 -0.039,-1.23 0.77,-0.961 -0.578,-0.191 0.115,-1.076 0.309,-0.115 1.037,-4.691 -0.191,-1 h -0.27 l 0.115,-2.076 0.654,-0.193 -0.309,-2.268 0.885,-0.348 -0.73,-0.652 0.309,-1.039 0.691,-0.385 -0.73,-0.346 0.576,-1.885 -0.346,0.039 0.039,-1.27 -0.346,0.039 0.422,-0.846 -0.307,-1.922 0.615,-0.385 -0.73,-0.424 0.23,-0.885 -1.193,-0.883 -6.768,-0.654 -1.037,-0.961 0.115,-0.539 3.576,-2.346 0.576,0.078 0.77,-0.654 8.574,1.23 0.461,0.5 0.463,-0.578 3.422,0.539 h 10.998 z"
           id="path25" />
        <path
           style="stroke:#000000"
           inkscape:connector-curvature="0"
           d="m 497.852,351.324 -0.5,1.23 -0.924,3.691 -1.23,1.615 -1.27,0.846 0.539,0.152 -3.768,2.846 -1.77,0.307 -0.424,0.885 -0.846,-0.424 -5.152,0.693 -2.73,0.037 -4.459,-1.535 -2.961,-1.885 -0.615,0.346 -1,-0.961 -1.039,-0.191 -1.768,-1.5 -2.076,-0.846 -1.385,-1.115 -0.154,-0.578 -1.537,-0.768 -0.809,-1.309 h -0.846 l -0.961,-1.615 -2.424,-1.73 0.039,-0.537 -3.191,-2.73 -0.23,0.576 -0.77,0.154 0.346,0.615 -0.768,1.039 0.346,0.883 -1.076,1.846 -0.348,1.615 -0.73,0.654 0.463,0.23 -2.154,5.037 -0.77,-0.27 0.615,1 -0.385,1.576 -0.768,0.615 0.23,1.268 -0.693,1.154 -1.076,0.615 -2.422,0.23 -0.346,-0.73 3.346,-11.881 0.498,-0.576 -0.346,-0.076 0.73,-1.539 -0.152,-0.576 0.768,-1.615 -0.461,-0.615 0.885,-1.039 0.654,-1.768 -0.424,-0.115 0.5,-1.27 -2.191,-2.152 0.422,-1.77 2.809,-0.5 0.115,-0.346 0.461,-0.039 0.615,-1.615 -0.461,-0.307 1.652,-3.654 -0.422,-0.037 0.5,-2.654 0.537,-0.385 1,-5.189 0.309,0.037 -0.348,-1.73 0.309,-0.115 0.115,-1 0.385,-0.922 0.154,-1 0.537,-0.5 -0.27,-1.77 0.463,-3.076 0.537,-0.998 -0.691,-0.578 -1.73,0.309 -0.924,-0.385 -1.268,0.076 -0.115,0.27 -1.193,-0.307 -0.115,0.383 -3.998,0.309 -3.191,1.654 v 0.268 l -2,1.115 -0.461,-0.846 1.037,-1.691 1.193,-1.27 3.729,-2.076 3.385,-0.654 3.576,-0.383 0.576,0.268 0.73,-0.346 3.191,0.424 0.576,-0.193 c 0.615,-0.203 1.064,-0.242 1.348,-0.115 l 1.307,0.578 1.076,-0.193 5.922,1.615 0.576,-0.115 1.309,0.885 1.768,0.23 5.768,4.113 0.193,0.848 1,0.307 0.191,1.191 0.693,0.27 1.537,3.77 v 2.537 l -0.27,0.115 0.23,1 -0.652,1.768 0.037,1.078 -0.5,0.27 -0.346,0.961 -4.344,4.807 -2.27,1.652 c -0.641,0.463 -1.244,0.834 -1.807,1.115 l -6.768,3.307 -2.961,0.885 -0.539,-0.23 -2.307,0.539 0.885,1.268 1.268,1.078 -0.037,0.576 0.652,0.076 0.424,0.961 1.537,0.924 -0.037,0.461 1.768,1.309 -0.23,0.346 2.346,2.037 -0.076,-0.5 2.307,1.615 -0.191,0.346 1.652,0.654 0.578,0.885 5.959,3.537 0.846,0.191 0.846,0.117 0.809,0.691 0.652,-0.154 0.885,0.5 3.039,0.115 3.152,-0.461 4.076,-2.691 0.846,-2.385 0.654,-0.154 -0.154,-0.537 0.539,-0.27 1.461,-3.385 1.115,-0.422 z m -21.766,-24.994 -0.461,-0.424 -0.076,-0.922 0.191,-0.539 -0.652,-0.385 -0.77,-2.383 -0.809,-0.924 -0.23,-1 -1.23,-0.922 -0.115,-0.77 -4.113,-2.768 -1.73,-0.385 -1.615,-0.115 -0.615,1.73 0.5,0.537 -0.615,0.27 -0.039,1.885 -0.576,0.652 -0.424,2.309 -0.73,0.461 0.193,0.615 -1.078,3.037 0.23,0.924 -0.537,0.461 -0.539,2.076 -0.576,0.424 0.27,0.346 -1.346,3.613 -1.039,1.654 0.461,0.307 -1.115,2.039 0.309,0.5 -0.539,1.27 0.424,0.268 0.23,-0.307 0.73,0.615 1.422,-0.193 v 0.348 l 1.463,-0.078 0.461,-0.5 1.115,0.27 0.115,-0.307 3.268,-1 h 1.23 l 0.809,-0.578 0.807,-0.037 1.461,-0.77 3.615,-2.961 1.652,-4.115 z"
           id="path27" />
      </g>
    </g>
  </g>
</svg>
